<svg id="flower" xmlns="http://www.w3.org/2000/svg" width="52" height="71.5"><defs><style>.cls-2{fill-rule:evenodd;fill:none;stroke:#fff;stroke-width:3px}</style></defs><path d="M296.914 1520.32h2.066V1557h-2.066v-36.68z" transform="translate(-275.5 -1485.5)" fill-rule="evenodd" fill="#fff"/><path class="cls-2" d="M285.047 1508.64a5.975 5.975 0 018.369 0 5.775 5.775 0 010 8.25 5.994 5.994 0 01-8.369 0 5.775 5.775 0 010-8.25zm16.739-16.51a5.994 5.994 0 018.369 0 5.787 5.787 0 010 8.26 5.994 5.994 0 01-8.369 0 5.785 5.785 0 010-8.26zm-10.1 24.04a5.918 5.918 0 115.914 5.83 5.874 5.874 0 01-5.913-5.83zm0-23.34a5.918 5.918 0 115.917 5.84 5.874 5.874 0 01-5.916-5.84zm10.1 24.04a5.773 5.773 0 010-8.25 5.975 5.975 0 018.369 0 5.775 5.775 0 010 8.25 5.975 5.975 0 01-8.369 0zm-16.739-16.5a5.775 5.775 0 010-8.25 5.975 5.975 0 018.369 0 5.775 5.775 0 010 8.25 5.975 5.975 0 01-8.369 0zm24.381 9.95a5.831 5.831 0 115.918-5.83 5.875 5.875 0 01-5.918 5.83zm-23.672 0a5.831 5.831 0 115.918-5.83 5.875 5.875 0 01-5.918 5.83z" transform="translate(-275.5 -1485.5)"/><path class="cls-2" d="M297.592 1494a10.5 10.5 0 11-10.646 10.5 10.574 10.574 0 0110.646-10.5zm.878 49.7l-1.045-1.05 13.946-13.83 1.045 1.05z" transform="translate(-275.5 -1485.5)"/><path class="cls-2" d="M298.631 1542.12l-1.045 1.74-17.433-17.28 1.045-1.75zM326 1516.95s-.984 14.42-5.239 18.63-10.74 4.63-14.485.92-3.33-10.14.925-14.36 18.799-5.19 18.799-5.19z" transform="translate(-275.5 -1485.5)"/><path class="cls-2" d="M277 1523.4s.72 10.51 3.837 13.58 7.867 3.38 10.61.67 2.439-7.39-.677-10.47-13.77-3.78-13.77-3.78z" transform="translate(-275.5 -1485.5)"/></svg>