<svg id="timeIcon" xmlns="http://www.w3.org/2000/svg" width="73" height="73"><defs><style>.cls-1{fill:#030303;stroke:#fff;stroke-width:3px;fill-rule:evenodd}</style></defs><path class="cls-1" d="M737.921 1493.38a1.4 1.4 0 11-1.4 1.4 1.4 1.4 0 011.4-1.4zm0 60.2a1.4 1.4 0 11-1.4 1.4 1.4 1.4 0 011.4-1.4zm8.155-59.12a1.4 1.4 0 11-1.715.99 1.394 1.394 0 011.715-.99zm-15.576 58.15a1.4 1.4 0 11-1.715.99 1.394 1.394 0 011.715-.99zm23.18-55a1.4 1.4 0 11-1.913.51 1.4 1.4 0 011.908-.51zm-30.1 52.13a1.4 1.4 0 11-1.912.51 1.4 1.4 0 011.906-.51zm36.625-47.12a1.4 1.4 0 11-1.98 0 1.4 1.4 0 011.975 0zm-42.568 42.56a1.4 1.4 0 11-1.98 0 1.4 1.4 0 011.974 0zm47.574-36.04a1.4 1.4 0 11-1.913-.51 1.41 1.41 0 011.907.51zm-52.135 30.1a1.4 1.4 0 11-1.913-.51 1.41 1.41 0 011.907.51zm55.28-22.5a1.4 1.4 0 11-1.714-.99 1.4 1.4 0 011.708.99zm-58.156 15.58a1.4 1.4 0 11-1.715-.99 1.4 1.4 0 011.715.99zm59.22-7.42a1.4 1.4 0 11-1.4-1.4 1.4 1.4 0 011.402 1.4zm-60.2 0a1.4 1.4 0 11-1.4-1.4 1.4 1.4 0 011.402 1.4zm59.124 8.15a1.4 1.4 0 11-.99-1.71 1.4 1.4 0 01.992 1.71zm-58.144-15.58a1.4 1.4 0 11-.99-1.71 1.4 1.4 0 01.99 1.71zm55 23.18a1.4 1.4 0 11-.512-1.91 1.409 1.409 0 01.512 1.91zm-52.135-30.1a1.4 1.4 0 11-.512-1.91 1.407 1.407 0 01.508 1.91zm47.126 36.63a1.4 1.4 0 01-1.98-1.98 1.4 1.4 0 011.976 1.98zm-42.568-42.57a1.4 1.4 0 110-1.98 1.394 1.394 0 01-.004 1.98zm36.041 47.57a1.4 1.4 0 11.512-1.91 1.4 1.4 0 01-.516 1.91zm-30.1-52.13a1.4 1.4 0 11.512-1.91 1.405 1.405 0 01-.516 1.91zm22.5 55.28a1.4 1.4 0 11.99-1.72 1.4 1.4 0 01-.995 1.72zm-15.581-58.15a1.4 1.4 0 11.99-1.71 1.4 1.4 0 01-.995 1.71z" transform="translate(-701.5 -1488.5)"/><path class="cls-1" d="M737 1490h2v9h-2v-9zm0 61h2v9h-2v-9zm-34-25v-2h9v2h-9zm61 0v-2h9v2h-9zm-44 0v-2h19v2h-19zm19 0h-2v-25h2v25z" transform="translate(-701.5 -1488.5)"/><circle cx="36.531" cy="36.5" r="3.5" fill="#030303" stroke="#fff" stroke-width="3"/></svg>